<?xml version="1.0" standalone="no"?>
<!DOCTYPE svg PUBLIC "-//W3C//DTD SVG 20010904//EN"
 "http://www.w3.org/TR/2001/REC-SVG-20010904/DTD/svg10.dtd">
<svg version="1.0" xmlns="http://www.w3.org/2000/svg"
 width="228.000000pt" height="149.000000pt" viewBox="0 0 228.000000 149.000000"
 preserveAspectRatio="xMidYMid meet">

<g transform="translate(0.000000,149.000000) scale(0.100000,-0.100000)"
fill="#000000" stroke="none">
<path d="M1162 1440 c-29 -4 -79 -18 -110 -29 -107 -41 -157 -85 -312 -277
-533 -662 -685 -854 -702 -893 -19 -41 -19 -45 -3 -88 11 -28 29 -52 49 -64
35 -21 100 -24 133 -6 12 7 209 246 438 532 228 286 439 544 467 573 101 102
259 156 401 135 40 -5 73 -9 75 -8 2 1 -23 19 -54 40 -107 71 -257 104 -382
85z"/>
<path d="M1350 1197 c-67 -24 -137 -63 -179 -101 -22 -19 -635 -780 -674 -836
-22 -31 -22 -94 -1 -130 35 -57 125 -81 178 -47 13 9 175 204 359 434 184 230
345 428 358 440 47 43 141 91 210 108 82 20 198 17 269 -8 l45 -16 -54 50
c-98 92 -199 129 -345 129 -80 0 -115 -5 -166 -23z"/>
<path d="M1642 980 c-139 -41 -180 -80 -461 -431 l-241 -302 0 -51 c0 -31 6
-61 16 -74 35 -50 125 -68 175 -34 14 9 135 152 267 317 154 192 258 313 289
335 135 97 308 120 466 60 28 -11 52 -18 54 -16 2 2 -22 30 -54 62 -63 63
-145 112 -232 138 -73 21 -199 19 -279 -4z"/>
<path d="M1844 591 c-54 -24 -120 -94 -140 -147 -11 -30 -15 -66 -13 -122 4
-71 8 -85 39 -131 42 -61 88 -94 165 -116 163 -48 338 90 338 265 0 103 -75
217 -168 256 -50 20 -171 18 -221 -5z"/>
</g>
</svg>
